# xmcd CD database file
#
# Track frame offsets:
#	150
#	18950
#	43572
#	60927
#	80027
#	96200
#	114807
#	130747
#	145827
#	167875
#	187655
#	205442
#	218530
#	236275
#	252107
#	269580
#	298385
#
# Disc length: 4128 seconds
#
# Revision: 2
# Processed by: cddbd v1.4PL0 Copyright (c) Steve Scherf et al.
# Submitted via: CDex 1.50Beta7
#
DISCID=ea101e11
DTITLE=Various Artist - Cuba Café
DYEAR=2000
DGENRE=Salsa
TTITLE0=Eliades Ochoa - Ay Papacito
TTITLE1=Compay Segundo - Chan Chan
TTITLE2=Ibrahim Ferrer - La Chica del Granizado
TTITLE3=Osdalgia - Voces del Carnaval
TTITLE4=Orquesta Aragon - Patricia
TTITLE5=Septeto Habanero - Voy a la Calle Vapor
TTITLE6=Tipico Oriental - Ensalada de Sones
TTITLE7=Eliades Ochoa - Mi Guajirita
TTITLE8=Afro Cuban Jazz Project - Coge Este Tumbao
TTITLE9=Compay Segundo - Viejos Sones de Santiago
TTITLE10=Septeto Habanero - Si Tun Ganga
TTITLE11=Orquestra Aragon - Quien Sabe Sabe
TTITLE12=Eliades Ochoa - Teje Que Teje
TTITLE13=Leyanis Lopez - El Cazador dr Brujas Solitarias
TTITLE14=Rubén Gonzáles - Fabiando
TTITLE15=Afro Cuban Jazz Project - Rumbata
TTITLE16=Tipico Oriental - Refugiate en Mi
EXTD=YEAR: 2000
EXTT0=
EXTT1=
EXTT2=
EXTT3=
EXTT4=
EXTT5=
EXTT6=
EXTT7=
EXTT8=
EXTT9=
EXTT10=
EXTT11=
EXTT12=
EXTT13=
EXTT14=
EXTT15=
EXTT16=
PLAYORDER=
